<?xml version="1.0" encoding="UTF-8" standalone="no"?>
<svg
   version="1.0"
   width="1280.000000pt"
   height="1274.000000pt"
   viewBox="0 0 1280.000000 1274.000000"
   preserveAspectRatio="xMidYMid meet"
   id="svg154"
   sodipodi:docname="481826.svg"
   inkscape:version="1.2.1 (9c6d41e410, 2022-07-14)"
   xmlns:inkscape="http://www.inkscape.org/namespaces/inkscape"
   xmlns:sodipodi="http://sodipodi.sourceforge.net/DTD/sodipodi-0.dtd"
   xmlns="http://www.w3.org/2000/svg"
   xmlns:svg="http://www.w3.org/2000/svg">
  <defs
     id="defs158" />
  <sodipodi:namedview
     id="namedview156"
     pagecolor="#505050"
     bordercolor="#ffffff"
     borderopacity="1"
     inkscape:showpageshadow="0"
     inkscape:pageopacity="0"
     inkscape:pagecheckerboard="1"
     inkscape:deskcolor="#505050"
     inkscape:document-units="pt"
     showgrid="false"
     inkscape:zoom="0.47919937"
     inkscape:cx="853.50696"
     inkscape:cy="849.33333"
     inkscape:window-width="1920"
     inkscape:window-height="1017"
     inkscape:window-x="-8"
     inkscape:window-y="-8"
     inkscape:window-maximized="1"
     inkscape:current-layer="svg154" />
  <metadata
     id="metadata146">
Created by potrace 1.15, written by Peter Selinger 2001-2017
</metadata>
  <g
     transform="translate(0.000000,1274.000000) scale(0.100000,-0.100000)"
     fill="#000000"
     stroke="none"
     id="g152"
     style="fill:#eeeeee;fill-opacity:0.93333334">
    <path
       d="M9200 12725 c-36 -8 -103 -33 -149 -56 -100 -49 -204 -146 -246 -229 -16 -30 -70 -169 -121 -308 -50 -139 -94 -256 -97 -258 -3 -3 -58 0 -123 5 -240 21 -508 11 -807 -30 -82 -12 -149 -19 -151 -17 -1 1 -51 109 -111 238 -138 297 -159 332 -242 411 -74 69 -162 119 -258 144 -78 20 -216 20 -292 1 -59 -16 -589 -251 -728 -324 -185 -97 -301 -280 -312 -492 -7 -138 9 -192 147 -488 l121 -257 -68 -60 c-215 -188 -427 -415 -580 -622 -46 -62 -88 -113 -93 -113 -4 0 -118 40 -251 88 -134 49 -265 94 -291 100 -65 16 -222 15 -288 -3 -138 -37 -285 -140 -356 -251 -31 -48 -273 -675 -300 -778 -36 -138 -24 -269 39 -401 47 -96 104 -166 187 -224 70 -49 147 -80 518 -212 l123 -44 -6 -31 c-14 -78 -23 -392 -15 -549 10 -180 20 -278 46 -414 8 -46 14 -84 12 -86 -2 -1 -115 -54 -251 -118 -280 -130 -321 -154 -394 -229 -137 -140 -198 -343 -159 -527 14 -67 198 -493 314 -726 110 -223 300 -345 537 -345 123 0 180 17 395 117 102 47 217 101 256 119 l72 32 53 -66 c77 -95 327 -344 442 -440 54 -45 143 -114 198 -154 67 -49 99 -78 96 -88 -3 -8 -49 -136 -102 -285 -92 -254 -98 -276 -103 -365 -8 -169 49 -321 167 -439 87 -88 140 -114 521 -256 421 -157 395 -150 530 -149 106 0 122 3 197 33 132 52 221 127 298 251 16 25 72 166 126 313 53 148 99 270 102 273 3 3 97 0 210 -7 280 -17 516 -2 856 54 10 1 53 -81 134 -253 65 -140 139 -283 164 -318 146 -205 432 -294 668 -209 138 50 690 309 752 353 109 78 180 181 223 323 19 62 22 89 18 179 -6 131 -11 144 -154 451 l-114 245 37 30 c221 181 490 470 653 704 32 44 49 61 60 56 153 -62 551 -195 610 -203 211 -29 436 75 556 256 34 52 113 248 250 626 51 140 66 195 71 256 14 185 -76 387 -225 503 -80 63 -113 78 -401 183 -216 79 -256 96 -253 112 11 63 13 559 3 675 -12 124 -34 299 -47 359 -5 25 3 29 238 139 134 63 271 131 305 153 203 126 309 381 258 619 -17 80 -306 725 -362 806 -143 210 -413 307 -653 236 -30 -8 -167 -68 -304 -132 l-249 -116 -55 65 c-169 197 -494 495 -673 617 -44 30 -67 52 -65 62 2 8 48 137 101 285 96 264 98 272 103 375 5 122 -10 195 -61 299 -42 86 -151 198 -232 239 -54 26 -553 217 -716 273 -82 28 -220 34 -309 14z m-630 -2295 c1015 -180 1783 -975 1926 -1995 31 -226 18 -561 -31 -786 -159 -720 -624 -1308 -1281 -1620 -291 -139 -563 -203 -906 -216 -911 -33 -1756 464 -2167 1276 -260 515 -322 1070 -181 1633 39 156 87 283 170 453 344 700 1020 1181 1795 1274 44 5 186 8 315 6 188 -2 260 -7 360 -25z"
       id="path148"
       style="fill:#eeeeee;fill-opacity:0.93333334" />
    <path
       d="M3345 5454 c-86 -22 -176 -80 -219 -143 -15 -22 -54 -113 -86 -202 l-58 -163 -233 -1 c-129 -1 -271 -8 -317 -14 -45 -6 -86 -10 -90 -7 -5 3 -41 78 -82 166 -84 184 -119 231 -212 281 -59 32 -69 34 -158 34 l-95 0 -224 -105 c-243 -114 -297 -151 -343 -237 -34 -61 -50 -158 -38 -223 5 -26 41 -120 80 -208 l72 -161 -140 -136 c-77 -75 -169 -173 -204 -217 -35 -44 -70 -90 -79 -101 -16 -20 -17 -20 -180 39 -153 55 -169 59 -249 58 -99 -1 -171 -28 -239 -89 -59 -54 -71 -78 -163 -320 -79 -212 -82 -223 -82 -305 0 -97 25 -166 84 -233 46 -53 92 -77 275 -142 l160 -56 -3 -207 c-1 -125 3 -252 11 -321 l13 -113 -56 -25 c-239 -105 -265 -119 -315 -164 -76 -70 -110 -149 -110 -254 l1 -80 103 -220 c57 -121 117 -239 134 -262 60 -85 164 -135 276 -136 73 0 82 2 249 76 95 42 176 77 180 77 4 -1 27 -26 52 -56 78 -97 306 -304 418 -379 1 -2 -22 -70 -51 -152 -74 -203 -83 -245 -67 -325 20 -102 73 -184 150 -233 38 -24 416 -166 494 -186 103 -26 234 13 316 95 53 52 61 68 129 259 l57 159 199 -2 c173 -1 352 10 421 25 18 4 29 -16 94 -161 100 -226 157 -284 308 -315 91 -19 140 -5 387 112 244 116 297 153 341 247 32 68 43 178 24 238 -7 22 -43 107 -80 191 l-67 151 91 80 c90 78 222 223 306 335 31 42 48 56 59 51 101 -40 334 -115 374 -120 104 -12 235 45 301 132 22 28 63 124 122 281 81 216 89 244 89 308 0 59 -5 81 -33 137 -38 77 -102 140 -177 173 -27 12 -107 42 -176 66 l-126 43 5 162 c4 141 -7 354 -24 450 l-6 30 144 63 c154 67 232 114 265 159 60 81 88 191 72 279 -11 55 -178 417 -229 492 -68 102 -185 159 -309 148 -53 -4 -98 -20 -232 -80 l-167 -74 -115 121 c-63 67 -159 158 -212 202 -54 43 -109 88 -122 99 l-25 21 57 159 c32 91 59 185 62 218 11 116 -52 256 -145 321 -22 15 -136 63 -254 108 -184 69 -223 80 -288 83 -41 2 -84 2 -95 -1z m-387 -1350 c200 -29 431 -122 602 -242 85 -60 253 -228 315 -317 68 -97 149 -260 184 -369 113 -351 89 -712 -68 -1042 -149 -311 -406 -558 -715 -684 -383 -156 -798 -138 -1170 53 -373 191 -638 551 -722 982 -24 124 -24 359 0 480 57 288 179 526 374 728 53 55 132 126 175 158 289 216 660 308 1025 253z"
       id="path150"
       style="fill:#eeeeee;fill-opacity:0.93333334" />
  </g>
</svg>
